<svg width="1600" height="900" viewBox="0 0 1600 900" fill="none" xmlns="http://www.w3.org/2000/svg">
  <defs>
    <linearGradient id="bg" x1="126" y1="88" x2="1488" y2="810" gradientUnits="userSpaceOnUse">
      <stop stop-color="#111827"/>
      <stop offset="0.45" stop-color="#312E81"/>
      <stop offset="1" stop-color="#7C3AED"/>
    </linearGradient>
    <linearGradient id="glass" x1="272" y1="182" x2="1362" y2="714" gradientUnits="userSpaceOnUse">
      <stop stop-color="white" stop-opacity="0.98"/>
      <stop offset="1" stop-color="#EDE9FE" stop-opacity="0.95"/>
    </linearGradient>
  </defs>
  <rect width="1600" height="900" rx="48" fill="url(#bg)"/>
  <path d="M124 742L430 500L702 640L1020 366L1466 642" stroke="white" stroke-opacity="0.08" stroke-width="84" stroke-linecap="round" stroke-linejoin="round"/>
  <rect x="196" y="128" width="1208" height="644" rx="44" fill="url(#glass)"/>
  <rect x="256" y="188" width="418" height="520" rx="34" fill="#0F172A"/>
  <rect x="710" y="188" width="634" height="232" rx="34" fill="#FFFFFF"/>
  <rect x="710" y="448" width="304" height="260" rx="34" fill="#DDD6FE"/>
  <rect x="1040" y="448" width="304" height="260" rx="34" fill="#1E1B4B"/>
  <rect x="314" y="246" width="158" height="18" rx="9" fill="#C4B5FD"/>
  <rect x="314" y="280" width="266" height="38" rx="16" fill="#FFFFFF"/>
  <rect x="314" y="346" width="298" height="18" rx="9" fill="#94A3B8"/>
  <rect x="314" y="380" width="246" height="18" rx="9" fill="#94A3B8"/>
  <rect x="314" y="444" width="298" height="180" rx="28" fill="#312E81"/>
  <path d="M762 292H1288" stroke="#EDE9FE" stroke-width="22" stroke-linecap="round"/>
  <path d="M762 338H1186" stroke="#A78BFA" stroke-width="18" stroke-linecap="round"/>
  <rect x="762" y="372" width="178" height="16" rx="8" fill="#C4B5FD"/>
  <rect x="762" y="500" width="198" height="22" rx="11" fill="#4C1D95"/>
  <rect x="762" y="548" width="204" height="108" rx="26" fill="#8B5CF6"/>
  <rect x="1094" y="500" width="196" height="22" rx="11" fill="#C4B5FD"/>
  <circle cx="1192" cy="602" r="84" fill="#8B5CF6"/>
  <circle cx="1192" cy="602" r="46" fill="#DDD6FE"/>
  <path d="M486 680L572 624L658 680" stroke="#F5F3FF" stroke-width="18" stroke-linecap="round" stroke-linejoin="round"/>
  <text x="300" y="118" fill="white" font-family="Arial, sans-serif" font-size="44" font-weight="700">Enterprise</text>
  <text x="300" y="824" fill="white" fill-opacity="0.82" font-family="Arial, sans-serif" font-size="28">Acces complet, cost per utilizator si spatiu pentru adaptari serioase de business</text>
</svg>
