<svg xmlns="http://www.w3.org/2000/svg" width="512" height="512" viewBox="0 0 512 512" role="img" aria-labelledby="title desc">
  <title id="title">e-Marqet icon</title>
  <desc id="desc">Icon e-Marqet cu litera e, magazin si eticheta de marketplace.</desc>
  <defs>
    <linearGradient id="badge" x1="96" y1="64" x2="416" y2="448" gradientUnits="userSpaceOnUse">
      <stop offset="0" stop-color="#38bdf8"/>
      <stop offset="0.52" stop-color="#0284c7"/>
      <stop offset="1" stop-color="#0f4fb8"/>
    </linearGradient>
    <linearGradient id="mark" x1="156" y1="126" x2="360" y2="380" gradientUnits="userSpaceOnUse">
      <stop offset="0" stop-color="#eff6ff"/>
      <stop offset="1" stop-color="#ffffff"/>
    </linearGradient>
    <filter id="shadow" x="-20%" y="-20%" width="140%" height="140%" color-interpolation-filters="sRGB">
      <feDropShadow dx="0" dy="18" stdDeviation="18" flood-color="#075985" flood-opacity="0.22"/>
    </filter>
  </defs>
  <rect width="512" height="512" rx="112" fill="#f8fcff"/>
  <circle cx="256" cy="256" r="204" fill="url(#badge)"/>
  <circle cx="256" cy="256" r="172" fill="#ffffff"/>
  <g filter="url(#shadow)">
    <path d="M151 185h210v142c0 23-19 42-42 42H193c-23 0-42-19-42-42V185z" fill="#e0f2fe"/>
    <path d="M160 139h192l33 59H127l33-59z" fill="#075985"/>
    <path d="M127 197h258v18c0 22-18 40-40 40-16 0-30-10-36-24-6 14-20 24-37 24-16 0-30-10-36-24-6 14-20 24-36 24s-30-10-36-24c-6 14-20 24-37 24-22 0-40-18-40-40v-18z" fill="url(#badge)"/>
    <path d="M178 197h41v18c0 22-18 40-40 40h-1v-58zm92 0h41v18c0 22-18 40-40 40h-1v-58z" fill="#ffffff"/>
    <path d="M349 271h48c18 0 33 15 33 33v48c0 18-15 33-33 33h-48c-18 0-33-15-33-33v-48c0-18 15-33 33-33z" fill="#38bdf8"/>
    <circle cx="360" cy="315" r="13" fill="#ffffff"/>
    <path d="M365 303l38-38" stroke="#ffffff" stroke-width="18" stroke-linecap="round"/>
  </g>
  <path d="M330 320c-23 34-60 53-105 53-66 0-113-43-113-105 0-63 48-108 113-108 62 0 104 39 104 97 0 11-1 20-3 27H174c7 31 28 48 58 48 25 0 43-9 56-28l42 16zm-155-71h100c-5-28-23-45-50-45-26 0-44 16-50 45z" fill="url(#mark)"/>
</svg>
